<svg xml:space="preserve" viewBox="113.47726508226691 410.87181735159817 1120.8775137111518 201.0593607305936" version="1.1" xmlns:xlink="http://www.w3.org/1999/xlink" xmlns="http://www.w3.org/2000/svg" style="max-height: 500px" width="1120.8775137111518" height="201.0593607305936">
<desc>Created with Fabric.js 5.3.0</desc>
<defs>
</defs>
<g id="background-logo" transform="matrix(1 0 0 1 640 512)">
<rect height="1024" width="1280" ry="0" rx="0" y="-512" x="-640" paint-order="stroke" style="stroke: none; stroke-width: 0; stroke-dasharray: none; stroke-linecap: butt; stroke-dashoffset: 0; stroke-linejoin: miter; stroke-miterlimit: 4; fill: rgb(255,255,255); fill-opacity: 0; fill-rule: nonzero; opacity: 1;"/>
</g>
<g id="logo-logo" transform="matrix(1.1197074897048738 0 0 1.119707489704874 214.62435812639626 511.48761145742924)">
<g paint-order="stroke" style="">
		<g transform="matrix(0.8921268993714967 0 0 0.8921268993714967 0 0)">
<g paint-order="stroke" style="">
		<g transform="matrix(1 0 0 1 0 0)">
<path stroke-linecap="round" d="M 34.32 182.84 L 48.9 182.84 L 48.9 199.67000000000002 L 67.06 199.67000000000002 L 67.06 183.15 L 82.46000000000001 183.15 L 82.46000000000001 199.67000000000002 L 100.61000000000001 199.67000000000002 L 100.61000000000001 183.15 L 115.72000000000001 183.15 L 115.72000000000001 199.67000000000002 L 133.87 199.67000000000002 L 133.87 183.15 L 148.73000000000002 183.15 L 148.73000000000002 199.67000000000002 L 166.89000000000001 199.67000000000002 L 166.89000000000001 183.15 L 181.89000000000001 183.15 L 181.89000000000001 199.67000000000002 L 200 199.67000000000002 L 200 182 L 183.1 182 L 183.1 167.09 L 200 167.09 L 200 149.09 L 183.1 149.09 L 183.1 133.69 L 200 133.69 L 200 115.69 L 183.1 115.69 L 183.1 100.69 L 200 100.69 L 200 82.69 L 183.12 82.69 L 183.12 67.69 L 200 67.69 L 200 49.69 L 183.16 49.69 L 183.16 34.18 L 200 34.18 L 200 16.18 L 183.16 16.18 L 183.16 0.05 L 166.31 0.05 L 166.31 16.150000000000002 L 150.11 16.150000000000002 L 150.11 0 L 133.26 0 L 133.26 16.1 L 116.85999999999999 16.1 L 116.85999999999999 0 L 100 0 L 100 16.1 L 83.93 16.1 L 83.93 0 L 67.08 0 L 67.08 16.1 L 50.57 16.1 L 50.57 0 L 33.72 0 L 33.72 16.1 L 16.88 16.1 L 16.88 0 L 0 0 L 0 16.73 L 16.21 16.73 L 16.21 33.47 L 0 33.47 L 0 50.2 L 16.19 50.2 L 16.19 66.64 L 0 66.64 L 0 83.37 L 16.16 83.37 L 16.16 99.65 L 0 99.65 L 0 116.39 L 16.16 116.39 L 16.16 132.67000000000002 L 0 132.67000000000002 L 0 149.4 L 16.16 149.4 L 16.16 166.1 L 0 166.1 L 0 182.84 L 16.16 182.84 L 16.16 199.67000000000002 L 34.32 199.67000000000002 Z M 167 16.78 L 182 16.78 L 182 33.52 L 167 33.52 Z M 167 50.25 L 182 50.25 L 182 67 L 167 67 Z M 167 83.68 L 182 83.68 L 182 100 L 167 100 Z M 167 116.68 L 182 116.68 L 182 133 L 167 133 Z M 167 149.68 L 182 149.68 L 182 166.38 L 167 166.38 Z M 150.11 34.18 L 166.31 34.18 L 166.31 49.59 L 150.11 49.59 Z M 149.43 67.62 L 166.28 67.62 L 166.28 82.62 L 149.43 82.62 Z M 149.43 100.62 L 166.28 100.62 L 166.28 115.62 L 149.4 115.62 Z M 149.43 133.62 L 166.28 133.62 L 166.28 149.02 L 149.4 149.02 Z M 149.43 167.06 L 166.28 167.06 L 166.28 182 L 149.4 182 Z M 133.89 16.75 L 148.79 16.75 L 148.79 33.48 L 133.89 33.48 Z M 133.89 50.22 L 148.76 50.22 L 148.76 67 L 133.89 67 Z M 133.89 83.68 L 148.75 83.68 L 148.75 100 L 133.87 100 Z M 133.89 116.68 L 148.75 116.68 L 148.75 133 L 133.87 133 Z M 133.89 149.68 L 148.75 149.68 L 148.75 166.38 L 133.87 166.38 Z M 116.88999999999999 34.110000000000014 L 133.29 34.110000000000014 L 133.29 49.27 L 116.88999999999999 49.27 Z M 116.88999999999999 67.26000000000002 L 132.61999999999998 67.26000000000002 L 132.61999999999998 82.26000000000002 L 116.85 82.26000000000002 Z M 116.88999999999999 100.26000000000002 L 132.63 100.26000000000002 L 132.63 115.26000000000002 L 116.82 115.26000000000002 Z M 116.88999999999999 133.26000000000002 L 132.63 133.26000000000002 L 132.63 148.67000000000002 L 116.82 148.67000000000002 Z M 116.88999999999999 166.70000000000002 L 132.63 166.70000000000002 L 132.63 181.58 L 116.82 181.58 Z M 100.71999999999998 16.700000000000017 L 115.80999999999999 16.700000000000017 L 115.80999999999999 33.48 L 100.65 33.48 Z M 100.71999999999998 50.170000000000016 L 115.81999999999998 50.170000000000016 L 115.81999999999998 67 L 100.71999999999998 67 Z M 100.71999999999998 83.63000000000002 L 115.82999999999998 83.63000000000002 L 115.82999999999998 100 L 100.61 100 Z M 100.71999999999998 116.63000000000002 L 115.82999999999998 116.63000000000002 L 115.82999999999998 133 L 100.61 133 Z M 100.71999999999998 149.63000000000002 L 115.82999999999998 149.63000000000002 L 115.82999999999998 166.33 L 100.61 166.33 Z M 82.57 166.33 L 67.06 166.33 L 67.06 149.63000000000002 L 82.46000000000001 149.63000000000002 Z M 82.57 132.9 L 67.06 132.9 L 67.06 116.7 L 82.46000000000001 116.7 Z M 82.57 99.9 L 67.06 99.9 L 67.06 83.68 L 82.46000000000001 83.68 Z M 84.03999999999999 34.08000000000001 L 100 34.08000000000001 L 100 49.59 L 83.93 49.59 Z M 83.25999999999999 67.55000000000001 L 100 67.55000000000001 L 100 82.55000000000001 L 83.15 82.55000000000001 Z M 83.25999999999999 100.55000000000001 L 100 100.55000000000001 L 100 115.55000000000001 L 83.13 115.55000000000001 Z M 83.25999999999999 133.55 L 100 133.55 L 100 148.95000000000002 L 83.13 148.95000000000002 Z M 83.25999999999999 166.99 L 100 166.99 L 100 182 L 83.13 182 Z M 67.72 16.75 L 82.5 16.75 L 82.5 33.48 L 67.72 33.48 Z M 67.08 50.22 L 82.48 50.22 L 82.48 67 L 67.08 67 Z M 50.57 34.15 L 67.08 34.15 L 67.08 49.59 L 50.57 49.59 Z M 50.57 67.62 L 66.31 67.62 L 66.31 82.62 L 50.55 82.62 Z M 50.57 100.62 L 66.28 100.62 L 66.28 115.62 L 50.53 115.62 Z M 50.57 133.62 L 66.28 133.62 L 66.28 149.02 L 50.53 149.02 Z M 50.57 167.06 L 66.28 167.06 L 66.28 182 L 50.53 182 Z M 34.36 16.73 L 49.56 16.73 L 49.56 33.47 L 34.36 33.47 Z M 34.36 50.2 L 48.93 50.2 L 48.93 66.64 L 34.34 66.64 Z M 34.36 83.37 L 48.9 83.37 L 48.9 99.65 L 34.32 99.65 Z M 34.36 116.37 L 48.9 116.37 L 48.9 132.65 L 34.32 132.65 Z M 34.36 149.37 L 48.9 149.37 L 48.9 166.07 L 34.32 166.07 Z M 33.72 181.62 L 16.84 181.62 L 16.84 166.77 L 33.68 166.77 Z M 33.72 148.71 L 16.84 148.71 L 16.84 133.33 L 33.68 133.33 Z M 33.72 115.27000000000001 L 16.84 115.27000000000001 L 16.84 100.27000000000001 L 33.68 100.27000000000001 Z M 33.72 82.27000000000001 L 16.86 82.27000000000001 L 16.86 67.27000000000001 L 33.71 67.27000000000001 Z M 33.72 49.27000000000001 L 16.88 49.27000000000001 L 16.88 34.13 L 33.72 34.13 Z" transform="translate(-100, -99.83500000000001)" paint-order="stroke" style="stroke: none; stroke-width: 1; stroke-dasharray: none; stroke-linecap: butt; stroke-dashoffset: 0; stroke-linejoin: miter; stroke-miterlimit: 4; fill: rgb(26,123,123); fill-rule: nonzero; opacity: 1;"/>
</g>
</g>
</g>
		<g transform="matrix(0.6040051769107776 0 0 0.6040051769107776 0 0)">
<g paint-order="stroke" style="">
		<g transform="matrix(1 0 0 1 0 0)">
<rect height="200" width="200" ry="0" rx="0" y="-100" x="-100" paint-order="stroke" style="stroke: none; stroke-width: 1; stroke-dasharray: none; stroke-linecap: butt; stroke-dashoffset: 0; stroke-linejoin: miter; stroke-miterlimit: 4; fill: rgb(26,123,123); fill-rule: nonzero; opacity: 1;"/>
</g>
</g>
</g>
</g>
</g>
<g id="text-logo" transform="matrix(1.9211538461538462 0 0 1.9211538461538462 782.6978742177125 506.52734591896774)">
<g paint-order="stroke" style="">
		<g id="text-logo-path-0" transform="matrix(1 0 0 1 0 0)">
<path stroke-linecap="round" d="M 2.16 -47.81 L 2.16 -2.59 C 2.16 -1.8 1.73 -1.01 1.08 -0.43 C 0.86 -0.22 1.01 0 1.22 0 L 23.76 0 C 32.69 0 39.96 -7.42 39.96 -16.27 C 39.96 -21.1 37.87 -25.49 34.42 -28.51 C 33.84 -28.94 33.7 -29.81 34.06 -30.38 C 35.14 -32.26 35.71 -34.49 35.71 -36.79 C 35.71 -44.28 29.59 -50.4 22.1 -50.4 L 1.22 -50.4 C 1.01 -50.4 0.86 -50.18 1.08 -49.97 C 1.73 -49.39 2.16 -48.6 2.16 -47.81 Z M 11.52 -10.66 L 11.52 -21.89 C 11.52 -22.61 12.1 -23.18 12.82 -23.18 L 22.1 -23.18 C 22.68 -23.18 23.18 -23.18 23.76 -23.26 L 23.76 -23.18 C 28.15 -23.18 30.6 -20.66 30.6 -16.27 C 30.6 -11.88 28.15 -9.36 23.76 -9.36 L 12.82 -9.36 C 12.1 -9.36 11.52 -9.94 11.52 -10.66 Z M 11.52 -33.84 L 11.52 -39.74 C 11.52 -40.46 12.1 -41.04 12.82 -41.04 L 22.1 -41.04 C 25.06 -41.04 26.35 -39.74 26.35 -36.79 C 26.35 -33.84 25.06 -32.54 22.1 -32.54 L 12.82 -32.54 C 12.1 -32.54 11.52 -33.12 11.52 -33.84 Z M 64.98 -47.95 L 50.73 -2.45 C 50.44 -1.73 49.5 -1.01 48.86 -0.43 C 48.64 -0.22 48.78 0 49 0 L 60.59 0 C 60.81 0 60.95 -0.22 60.74 -0.43 C 60.09 -1.01 60.16 -1.73 60.45 -2.45 L 60.88 -3.82 C 62.9 -8.14 74.13 -8.57 79.31 -11.02 C 79.96 -11.38 80.61 -11.09 80.82 -10.44 L 83.34 -2.45 C 83.63 -1.73 83.7 -1.01 83.06 -0.43 C 82.84 -0.22 82.98 0 83.2 0 L 94.79 0 C 95.01 0 95.15 -0.22 94.94 -0.43 C 94.29 -1.01 93.35 -1.73 93.06 -2.45 L 78.81 -47.95 C 78.52 -48.67 78.45 -49.39 79.1 -49.97 C 79.31 -50.18 79.17 -50.4 78.95 -50.4 L 64.84 -50.4 C 64.62 -50.4 64.48 -50.18 64.7 -49.97 C 65.34 -49.39 65.27 -48.67 64.98 -47.95 Z M 64.48 -15.48 L 71.54 -37.73 C 71.75 -38.38 72.04 -38.38 72.26 -37.73 L 77.8 -20.09 C 77.01 -17.78 68.66 -17.57 65.06 -15.12 C 64.55 -14.62 64.26 -14.83 64.48 -15.48 Z M 130.98 -50.4 L 103.62 -50.4 C 102.9 -50.4 102.11 -49.9 101.82 -49.18 L 98.36 -40.18 C 98.29 -39.96 98.43 -39.74 98.72 -39.89 C 99.51 -40.25 100.52 -41.04 101.31 -41.04 L 111.32 -41.04 C 112.04 -41.04 112.62 -41.62 112.62 -42.34 L 112.62 -2.59 C 112.62 -1.8 112.19 -1.01 111.54 -0.43 C 111.32 -0.22 111.47 0 111.68 0 L 122.91 0 C 123.13 0 123.27 -0.22 123.06 -0.43 C 122.41 -1.01 121.98 -1.8 121.98 -2.59 L 121.98 -42.34 C 121.98 -41.62 122.55 -41.04 123.27 -41.04 L 133.28 -41.04 C 134.07 -41.04 135.08 -40.25 135.87 -39.89 C 136.16 -39.74 136.31 -39.96 136.23 -40.18 L 132.78 -49.18 C 132.49 -49.9 131.7 -50.4 130.98 -50.4 Z M 180.91 -11.66 C 178.39 -9.86 175.66 -9 172.06 -9 C 162.48 -9 155.86 -15.62 155.86 -25.27 C 155.86 -34.85 162.48 -41.4 172.06 -41.4 C 174.22 -41.4 175.95 -41.04 177.67 -40.39 C 178.39 -40.1 178.97 -39.38 179.19 -38.59 C 179.26 -38.3 179.47 -38.3 179.62 -38.52 L 180.05 -39.38 L 184.51 -47.45 L 184.95 -48.38 C 185.02 -48.53 184.87 -48.74 184.59 -48.67 C 183.79 -48.38 182.93 -48.31 182.21 -48.67 C 179.11 -49.97 175.66 -50.76 172.06 -50.76 C 157.95 -50.76 146.5 -39.38 146.5 -25.27 C 146.5 -11.09 157.95 0.36 172.06 0.36 C 177.82 0.36 183.22 -1.58 187.47 -4.82 C 188.04 -5.4 188.98 -5.54 189.84 -5.47 C 190.13 -5.47 190.2 -5.69 190.06 -5.9 L 189.34 -6.62 L 183 -13.25 L 182.35 -14.04 C 182.21 -14.18 181.92 -14.18 181.92 -13.9 C 181.85 -13.03 181.56 -12.17 180.91 -11.66 Z M 202.27 -47.81 L 202.27 -2.59 C 202.27 -1.8 201.83 -1.01 201.19 -0.43 C 200.97 -0.22 201.11 0 201.33 0 L 212.56 0 C 212.78 0 212.92 -0.22 212.71 -0.43 C 212.06 -1.01 211.63 -1.8 211.63 -2.59 L 211.63 -8.42 C 211.63 -9.14 212.2 -9.72 212.92 -9.72 L 231.93 -9.72 C 232.65 -9.72 233.23 -9.14 233.23 -8.42 L 233.23 -2.59 C 233.23 -1.8 232.79 -1.01 232.15 -0.43 C 231.93 -0.22 232.07 0 232.29 0 L 243.52 0 C 243.74 0 243.88 -0.22 243.67 -0.43 C 243.02 -1.01 242.59 -1.8 242.59 -2.59 L 242.59 -47.81 C 242.59 -48.6 243.02 -49.39 243.67 -49.97 C 243.88 -50.18 243.74 -50.4 243.52 -50.4 L 232.29 -50.4 C 232.07 -50.4 231.93 -50.18 232.15 -49.97 C 232.79 -49.39 233.23 -48.6 233.23 -47.81 L 233.23 -20.38 C 233.23 -19.66 232.65 -19.08 231.93 -19.08 L 212.92 -19.08 C 212.2 -19.08 211.63 -19.66 211.63 -20.38 L 211.63 -47.81 C 211.63 -48.6 212.06 -49.39 212.71 -49.97 C 212.92 -50.18 212.78 -50.4 212.56 -50.4 L 201.33 -50.4 C 201.11 -50.4 200.97 -50.18 201.19 -49.97 C 201.83 -49.39 202.27 -48.6 202.27 -47.81 Z M 288.42 -50.4 L 258.18 -50.4 C 257.46 -50.4 256.88 -49.82 256.88 -49.1 L 256.88 -40.1 C 256.88 -39.89 257.1 -39.74 257.32 -39.96 C 257.89 -40.61 258.68 -41.04 259.48 -41.04 L 279.49 -41.04 C 278.77 -41.04 277.84 -40.61 277.48 -39.96 L 256.16 -10.44 C 255.8 -9.79 256.02 -9.36 256.74 -9.36 L 255.44 -9.36 L 255.44 -1.3 C 255.44 -0.58 256.02 0 256.74 0 L 289.86 0 C 290.58 0 291.16 -0.58 291.16 -1.3 L 291.16 -10.3 C 291.16 -10.51 290.94 -10.66 290.72 -10.44 C 290.15 -9.79 289.36 -9.36 288.56 -9.36 L 265.67 -9.36 C 266.39 -9.36 267.32 -9.79 267.68 -10.44 L 289.72 -41.04 L 288.42 -41.04 C 289.14 -41.04 289.72 -41.62 289.72 -42.34 L 289.72 -49.1 C 289.72 -49.82 289.14 -50.4 288.42 -50.4 Z M 325.97 -9 C 317.04 -9 309.77 -16.27 309.77 -25.27 C 309.77 -34.2 317.04 -41.4 325.97 -41.4 C 334.83 -41.4 342.1 -34.2 342.1 -25.27 C 342.1 -16.27 334.83 -9 325.97 -9 Z M 325.97 0.36 C 340.01 0.36 351.46 -11.09 351.46 -25.27 C 351.46 -39.38 340.01 -50.76 325.97 -50.76 C 311.86 -50.76 300.41 -39.38 300.41 -25.27 C 300.41 -11.09 311.86 0.36 325.97 0.36 Z M 364.32 -47.81 L 364.32 -2.59 C 364.32 -1.8 363.88 -1.01 363.24 -0.43 C 363.02 -0.22 363.16 0 363.38 0 L 374.61 0 C 374.83 0 374.97 -0.22 374.76 -0.43 C 374.11 -1.01 373.68 -1.8 373.68 -2.59 L 373.68 -28.22 C 373.68 -28.94 374.11 -29.16 374.61 -28.66 L 394.34 -10.94 C 394.84 -10.44 395.28 -9.5 395.28 -8.78 L 395.28 -2.59 C 395.28 -1.8 394.84 -1.01 394.2 -0.43 C 393.98 -0.22 394.12 0 394.34 0 L 405.57 0 C 405.79 0 405.93 -0.22 405.72 -0.43 C 405.07 -1.01 404.64 -1.8 404.64 -2.59 L 404.64 -47.81 C 404.64 -48.6 405.07 -49.39 405.72 -49.97 C 405.93 -50.18 405.79 -50.4 405.57 -50.4 L 394.34 -50.4 C 394.12 -50.4 393.98 -50.18 394.2 -49.97 C 394.84 -49.39 395.28 -48.6 395.28 -47.81 L 395.28 -22.9 C 395.28 -22.18 394.84 -21.96 394.34 -22.46 L 374.61 -40.18 C 374.11 -40.68 373.68 -41.62 373.68 -42.34 L 373.68 -47.81 C 373.68 -48.6 374.11 -49.39 374.76 -49.97 C 374.97 -50.18 374.83 -50.4 374.61 -50.4 L 363.38 -50.4 C 363.16 -50.4 363.02 -50.18 363.24 -49.97 C 363.88 -49.39 364.32 -48.6 364.32 -47.81 Z M 417.49 -47.81 L 417.49 -2.59 C 417.49 -1.8 417.06 -1.01 416.41 -0.43 C 416.2 -0.22 416.34 0 416.56 0 L 445.93 0 C 446.65 0 447.45 -0.5 447.73 -1.22 L 451.19 -10.22 C 451.26 -10.44 451.12 -10.66 450.83 -10.51 C 450.04 -10.15 449.03 -9.36 448.24 -9.36 L 428.15 -9.36 C 427.43 -9.36 426.85 -9.94 426.85 -10.66 L 426.85 -13.46 C 427 -13.68 427 -13.68 427.07 -13.9 C 428.94 -20.38 432.25 -22.25 439.31 -21.6 C 440.1 -21.53 440.82 -21.02 441.33 -20.3 C 441.47 -20.09 441.76 -20.16 441.76 -20.38 L 441.9 -21.38 L 443.34 -30.46 L 443.49 -31.46 C 443.49 -31.68 443.27 -31.82 443.05 -31.68 C 442.41 -31.1 441.54 -30.74 440.75 -30.82 C 435.85 -31.25 431.61 -30.67 428.01 -28.87 C 427.36 -28.58 426.85 -28.87 426.85 -29.59 L 426.85 -39.74 C 426.85 -40.46 427.43 -41.04 428.15 -41.04 L 446.08 -41.04 C 446.87 -41.04 447.88 -40.25 448.67 -39.89 C 448.96 -39.74 449.1 -39.96 449.03 -40.18 L 445.57 -49.18 C 445.29 -49.9 444.49 -50.4 443.77 -50.4 L 416.56 -50.4 C 416.34 -50.4 416.2 -50.18 416.41 -49.97 C 417.06 -49.39 417.49 -48.6 417.49 -47.81 Z" transform="translate(-226.08973446892676, 25.2)" paint-order="stroke" style="stroke: rgb(255,255,255); stroke-width: 0; stroke-dasharray: none; stroke-linecap: butt; stroke-dashoffset: 0; stroke-linejoin: miter; stroke-miterlimit: 4; fill: rgb(0,0,0); fill-rule: nonzero; opacity: 1;"/>
</g>
</g>
</g>
<g id="tagline-81184f7b-f5fb-4edc-871b-34431050d097-logo" transform="matrix(1.9211538461538462 0 0 1.9211538461538462 213.90008312639623 512.8776532677417)">
<g paint-order="stroke" style="">
		<g id="tagline-81184f7b-f5fb-4edc-871b-34431050d097-logo-path-0" transform="matrix(1 0 0 1 0 0)">
<path stroke-linecap="round" d="M 1.82 0 L 13.68 0 C 19.55 0 24.34 -4.78 24.34 -10.66 C 24.34 -14.87 21.89 -18.51 18.3 -20.23 C 18.98 -21.68 19.34 -23.3 19.34 -24.96 C 19.34 -31.2 14.3 -36.3 8.06 -36.4 L 1.82 -36.4 Z M 13.68 -6.24 L 8.06 -6.24 L 8.06 -13.52 C 10.09 -13.57 12.01 -14.14 13.68 -15.08 C 16.54 -15.08 18.1 -13.52 18.1 -10.66 C 18.1 -7.8 16.54 -6.24 13.68 -6.24 Z M 8.06 -19.76 L 8.06 -30.16 C 11.23 -30.11 13.1 -28.18 13.1 -24.96 C 13.1 -21.74 11.23 -19.81 8.06 -19.76 Z" transform="translate(-13.08, 18.2)" paint-order="stroke" style="stroke: rgb(255,255,255); stroke-width: 0; stroke-dasharray: none; stroke-linecap: butt; stroke-dashoffset: 0; stroke-linejoin: miter; stroke-miterlimit: 4; fill: rgb(255,255,255); fill-rule: nonzero; opacity: 1;"/>
</g>
</g>
</g>
</svg>